<svg height="512" viewBox="0 0 512 512" width="512" xmlns="http://www.w3.org/2000/svg"><g><g><rect fill="#3e3d42" height="112" rx="24" width="336" x="16" y="272"/><circle cx="56" cy="328" fill="#d80027" r="16"/><circle cx="112" cy="328" fill="#ffda44" r="16"/><circle cx="168" cy="328" fill="#91cc04" r="16"/><path d="m352 240v8a24.006 24.006 0 0 1 -24 24h-288a24.006 24.006 0 0 1 -24-24v-64a24.006 24.006 0 0 1 24-24h243.06" fill="#57565c"/><circle cx="56" cy="216" fill="#d80027" r="16"/><circle cx="112" cy="216" fill="#ffda44" r="16"/><circle cx="168" cy="216" fill="#91cc04" r="16"/><rect fill="#2d2d30" height="112" rx="24" width="336" x="16" y="384"/><circle cx="56" cy="440" fill="#d80027" r="16"/><circle cx="112" cy="440" fill="#ffda44" r="16"/><circle cx="168" cy="440" fill="#91cc04" r="16"/><path d="m168 136h32v24h-32z" fill="#e0e0e2"/><path d="m472.167 240h-192.334a24 24 0 0 1 -21.466-34.733l96.167-176.334c8.844-17.69 34.088-17.69 42.932 0l96.167 176.334a24 24 0 0 1 -21.466 34.733z" fill="#ffda44"/><g fill="#57565c"><path d="m384 160h-16l-8-96h32z"/><path d="m360 184h32v32h-32z"/></g></g><g><path d="m500.79 201.69c-.04-.09-.09-.17-.13-.25l-96.11-176.22a32 32 0 0 0 -57.1 0l-69.15 126.78h-70.3v-16a8 8 0 0 0 -8-8h-32a8 8 0 0 0 -8 8v16h-120a32.036 32.036 0 0 0 -32 32v64a31.92 31.92 0 0 0 10.87 24 31.92 31.92 0 0 0 -10.87 24v64a31.92 31.92 0 0 0 10.87 24 31.92 31.92 0 0 0 -10.87 24v64a32.036 32.036 0 0 0 32 32h288a32.036 32.036 0 0 0 32-32v-64a31.92 31.92 0 0 0 -10.87-24 31.92 31.92 0 0 0 10.87-24v-64a31.92 31.92 0 0 0 -10.87-24 31.92 31.92 0 0 0 10.87-24h112.17a32 32 0 0 0 28.62-46.31zm-324.79-57.69h16v8h-16zm168 328a16.021 16.021 0 0 1 -16 16h-288a16.021 16.021 0 0 1 -16-16v-64a16.021 16.021 0 0 1 16-16h288a16.021 16.021 0 0 1 16 16zm0-112a16.021 16.021 0 0 1 -16 16h-288a16.021 16.021 0 0 1 -16-16v-64a16.021 16.021 0 0 1 16-16h288a16.021 16.021 0 0 1 16 16zm-16-96h-288a16.021 16.021 0 0 1 -16-16v-64a16.021 16.021 0 0 1 16-16h229.58l-18.24 33.44c-.04.08-.09.16-.13.25a32 32 0 0 0 28.62 46.31h64.17a16.021 16.021 0 0 1 -16 16zm157.78-39.59a15.914 15.914 0 0 1 -13.61 7.59h-192.34a16 16 0 0 1 -14.37-23.04l24.56-45.03c.05-.08.09-.15.13-.23l71.41-130.94c.04-.08.09-.16.13-.25a16 16 0 0 1 28.62 0c.04.09.09.17.13.25l96.1 176.2a15.921 15.921 0 0 1 -.76 15.45z"/><path d="m397.89 58.58a8.031 8.031 0 0 0 -5.89-2.58h-32a7.987 7.987 0 0 0 -7.97 8.66l8 96a8 8 0 0 0 7.97 7.34h16a8 8 0 0 0 7.97-7.34l8-96a8.013 8.013 0 0 0 -2.08-6.08zm-21.25 93.42h-1.28l-6.67-80h14.62z"/><path d="m392 176h-32a8 8 0 0 0 -8 8v32a8 8 0 0 0 8 8h32a8 8 0 0 0 8-8v-32a8 8 0 0 0 -8-8zm-8 32h-16v-16h16z"/><path d="m32 328a24 24 0 1 0 24-24 24.027 24.027 0 0 0 -24 24zm24-8a8 8 0 1 1 -8 8 8.009 8.009 0 0 1 8-8z"/><path d="m112 352a24 24 0 1 0 -24-24 24.027 24.027 0 0 0 24 24zm0-32a8 8 0 1 1 -8 8 8.009 8.009 0 0 1 8-8z"/><path d="m168 352a24 24 0 1 0 -24-24 24.027 24.027 0 0 0 24 24zm0-32a8 8 0 1 1 -8 8 8.009 8.009 0 0 1 8-8z"/><path d="m248 328h80a8 8 0 0 0 0-16h-80a8 8 0 0 0 0 16z"/><path d="m328 336h-40a8 8 0 0 0 0 16h40a8 8 0 0 0 0-16z"/><path d="m216 328h8a8 8 0 0 0 0-16h-8a8 8 0 0 0 0 16z"/><path d="m56 192a24 24 0 1 0 24 24 24.027 24.027 0 0 0 -24-24zm0 32a8 8 0 1 1 8-8 8.009 8.009 0 0 1 -8 8z"/><path d="m112 192a24 24 0 1 0 24 24 24.027 24.027 0 0 0 -24-24zm0 32a8 8 0 1 1 8-8 8.009 8.009 0 0 1 -8 8z"/><path d="m168 192a24 24 0 1 0 24 24 24.027 24.027 0 0 0 -24-24zm0 32a8 8 0 1 1 8-8 8.009 8.009 0 0 1 -8 8z"/><path d="m224 200h-8a8 8 0 0 0 0 16h8a8 8 0 0 0 0-16z"/><path d="m32 440a24 24 0 1 0 24-24 24.027 24.027 0 0 0 -24 24zm24-8a8 8 0 1 1 -8 8 8.009 8.009 0 0 1 8-8z"/><path d="m112 464a24 24 0 1 0 -24-24 24.027 24.027 0 0 0 24 24zm0-32a8 8 0 1 1 -8 8 8.009 8.009 0 0 1 8-8z"/><path d="m168 464a24 24 0 1 0 -24-24 24.027 24.027 0 0 0 24 24zm0-32a8 8 0 1 1 -8 8 8.009 8.009 0 0 1 8-8z"/><path d="m248 440h80a8 8 0 0 0 0-16h-80a8 8 0 0 0 0 16z"/><path d="m328 448h-40a8 8 0 0 0 0 16h40a8 8 0 0 0 0-16z"/><path d="m216 440h8a8 8 0 0 0 0-16h-8a8 8 0 0 0 0 16z"/><path d="m184 120a8 8 0 0 0 8-8v-16h104a8 8 0 0 0 0-16h-112a8 8 0 0 0 -8 8v24a8 8 0 0 0 8 8z"/><path d="m408 256a8 8 0 0 0 -8 8v176h-24a8 8 0 0 0 0 16h32a8 8 0 0 0 8-8v-184a8 8 0 0 0 -8-8z"/></g></g></svg>