<svg height="512" viewBox="0 0 512 512" width="512" xmlns="http://www.w3.org/2000/svg"><g><g><path d="m496 240v248a8 8 0 0 1 -8 8h-16l-124.66-191.58z" fill="#e0e0e2"/><path d="m472 496h-432l119.32-193.89 96.68 41.89 91.34-39.58z" fill="#c6c5ca"/><path d="m16 240 143.32 62.11-119.32 193.89h-16a8 8 0 0 1 -8-8z" fill="#e0e0e2"/><path d="m496 184v56l-148.66 64.42-91.34 39.58-96.68-41.89-143.32-62.11v-56a8 8 0 0 1 8-8h464a8 8 0 0 1 8 8z" fill="#898890"/><path d="m144.26 120.42-128.26 55.58v40h170.71" fill="#57565c"/><path d="m325.29 216h170.71v-40l-128.26-55.58" fill="#57565c"/><path d="m416 272v-256h-320v256l160 72z" fill="#ffeb99"/><path d="m160 304-120 192" fill="#e0e0e2"/><path d="m278.63 121 50.91 50.91-22.63 22.63-50.91-50.91-50.91 50.91-22.63-22.63 50.91-50.91-50.91-50.91 22.63-22.63 50.91 50.91 50.91-50.91 22.63 22.63z" fill="#d80027"/></g><g><path d="m499.18 176.66-75.18-32.58v-128.08a8 8 0 0 0 -8-8h-320a8 8 0 0 0 -8 8v128.08l-75.18 32.58a7.994 7.994 0 0 0 -4.82 7.34v304a16.021 16.021 0 0 0 16 16h464a16.021 16.021 0 0 0 16-16v-304a7.994 7.994 0 0 0 -4.82-7.34zm-395.18-152.66h304v245.41l-152 65.87-152-65.87zm-80 165.25 64-27.73v100.96l-64-27.73zm0 298.75v-235.81l125.08 54.19-113.51 181.62zm30.43 0 109.49-175.18 88.9 38.52a7.991 7.991 0 0 0 6.36 0l88.9-38.52 109.49 175.18zm433.57 0h-11.57l-113.51-181.62 125.08-54.19zm0-253.25-64 27.73v-100.96l64 27.73z"/><path d="m88 480h80a8 8 0 0 0 0-16h-80a8 8 0 0 0 0 16z"/><path d="m192 480h8a8 8 0 0 0 0-16h-8a8 8 0 0 0 0 16z"/><path d="m176.8 177.567 22.63 22.63a8 8 0 0 0 11.314 0l45.256-45.254 45.253 45.257a8 8 0 0 0 11.314 0l22.63-22.63a8 8 0 0 0 0-11.314l-45.254-45.256 45.257-45.253a8 8 0 0 0 0-11.314l-22.633-22.633a8 8 0 0 0 -11.314 0l-45.253 45.257-45.253-45.257a8 8 0 0 0 -11.314 0l-22.633 22.633a8 8 0 0 0 0 11.314l45.257 45.253-45.257 45.253a8 8 0 0 0 0 11.314zm62.224-50.91a8 8 0 0 0 0-11.314l-45.251-45.253 11.317-11.317 45.253 45.254a8 8 0 0 0 11.314 0l45.253-45.254 11.317 11.317-45.254 45.253a8 8 0 0 0 0 11.314l45.254 45.253-11.317 11.317-45.253-45.254a8 8 0 0 0 -11.314 0l-45.253 45.254-11.317-11.317z"/><path d="m224 256.069v-32.069c0-.02 0-.033 0-.052a8 8 0 0 0 -14.247-4.948l-32 40a8 8 0 0 0 6.247 13h24v8a8 8 0 0 0 16 0v-8.069a7.993 7.993 0 0 0 0-15.862zm-23.355-.069 7.355-9.194v9.194z"/><path d="m328 256.07v-32.12a8 8 0 0 0 -14.25-4.95l-32 40a8 8 0 0 0 6.25 13h24v8a8 8 0 0 0 16 0v-8.07a7.992 7.992 0 0 0 0-15.86zm-16-.07h-7.36l7.36-9.19z"/><path d="m272 216h-32a8 8 0 0 0 -8 8v56a8 8 0 0 0 8 8h32a8 8 0 0 0 8-8v-56a8 8 0 0 0 -8-8zm-8 56h-16v-40h16z"/></g></g></svg>