<svg id="Capa_1" enable-background="new 0 0 511.755 511.755" height="512" viewBox="0 0 511.755 511.755" width="512" xmlns="http://www.w3.org/2000/svg"><g><g><g id="XMLID_280_"><g><path d="m451.027 7.505h-390.3c-10.96 0-19.85 8.88-19.85 19.84v23.44l29.882 56.19h378.712l21.406-56.19v-23.44c0-10.96-8.89-19.84-19.85-19.84z" fill="#5f99d7"/></g></g><path d="m124.009 20.19c0-4.794 1.603-9.193 4.268-12.686h-67.55c-10.96 0-19.85 8.88-19.85 19.84v23.44l29.882 56.19h53.25z" fill="#3c87d0"/><path d="m470.877 50.785v440.579c0 7.12-5.772 12.891-12.891 12.891h-404.217c-7.12 0-12.891-5.772-12.891-12.891v-440.579z" fill="#dff6fd"/><path d="m124.009 500.106v-449.321h-83.132v440.579c0 7.12 5.771 12.891 12.891 12.891h70.885c-.413-1.307-.644-2.699-.644-4.149z" fill="#c8effe"/><g><path d="m263.427 104.395c-.02-.01-.04-.01-.06-.01l4.828 4.365-13.755 1.201-5.103-5.656c-67.24 3.22-120.76 58.75-120.76 126.79 0 42.95 21.33 80.92 53.98 103.89l24.811-9.823h111.621l10.268 9.263c32.21-23.02 53.2-60.73 53.2-103.33.001-67.45-52.61-122.61-119.03-126.69z" fill="#fee97d"/><path d="m187.596 231.085c0-59.951 41.554-110.181 97.43-123.482-6.994-1.665-14.21-2.754-21.599-3.208l.868 1.74-14.647 1.403-.311-3.243c-67.24 3.22-120.76 58.75-120.76 126.79 0 42.95 21.33 80.92 53.98 103.89l24.811-9.823h21.944c-25.62-23.226-41.716-56.765-41.716-94.067z" fill="#fee45a"/><path d="m329.198 307.075v-129.75c0-20.25-8.21-38.57-21.48-51.84-11.59-11.6-27.06-19.33-44.29-21.09-.02-.01-.04-.01-.06-.01-2.6-.16-11.98-.19-14.03-.09-37.43 3.31-66.78 34.75-66.78 73.03v129.75z" fill="#a79ba7"/><g><g><path d="m215.126 177.325c0-34.884 24.406-64.083 57.056-71.496-2.851-.646-5.789-1.132-8.755-1.435-.02-.01-.04-.01-.06-.01-2.6-.16-11.98-.19-14.03-.09-37.43 3.31-66.78 34.75-66.78 73.03v129.75l32.568-2.695v-127.054z" fill="#918291"/></g><g><path d="m329.257 307.075v27.34c-20.79 14.86-46.24 23.61-73.74 23.61-27.16 0-52.32-8.53-72.96-23.05v-27.9c0-6.32 3.37-12.17 8.84-15.33l45.78-26.47 12.22-7.49h10.41l14.83 7.49 45.78 26.47c5.47 3.16 8.84 9.01 8.84 15.33z" fill="#ade194"/></g><path d="m274.637 265.275-14.83-7.49h-8.997-1.412l-12.22 7.49-45.78 26.47c-5.47 3.16-8.84 9.01-8.84 15.33v27.9c8.535 6.004 17.853 10.965 27.756 14.741v-22.286c0-6.32 3.37-12.17 8.84-15.33l14.683-8.49c6.095-3.524 13.046-5.462 20.079-5.148.494.022.991.033 1.491.033 15.711 0 28.9-10.964 32.343-25.64z" fill="#97da7b"/><path d="m273.633 265.27c0 10.066-8.16 18.226-18.226 18.226-10.066 0-18.226-8.16-18.226-18.226v-46.037h36.453v46.037z" fill="#ffe5c2"/><path d="m255.465 259.061h.05c6.396 0 12.505-1.235 18.119-3.457v-11.109h-36.453v20.345c0 8.946 6.282 16.868 15.098 18.387 3.521.607 6.872.157 9.851-1.027-6.736-2.677-11.504-9.241-11.504-16.93v-1.458c0-2.659 2.18-4.754 4.839-4.751z" fill="#fed2a4"/><path d="m293.995 182.665h-76.963c-2.168 0-3.925 1.757-3.925 3.925v23.064c0 7.58 1.998 14.689 5.483 20.847l7.863.583 18.721 16.396 17.012 1.942 10.083-.807c15.086-6.497 25.65-21.493 25.65-38.961v-23.064c.001-2.167-1.756-3.925-3.924-3.925z" fill="#ffe5c2"/><path d="m235.173 206.551v-23.064c0-.282.033-.557.089-.822h-18.23c-2.168 0-3.925 1.757-3.925 3.925v23.064c0 23.42 18.986 42.406 42.406 42.406 5.953 0 11.616-1.231 16.756-3.446-20.911-2.613-37.096-20.442-37.096-42.063z" fill="#fed2a4"/></g><path d="m421.248 354.287h-19.238c-5.532 0-10.016-4.484-10.016-10.016v-19.238c0-5.532 4.484-10.016 10.016-10.016h19.238c5.532 0 10.016 4.484 10.016 10.016v19.238c0 5.531-4.484 10.016-10.016 10.016z" fill="#c8effe"/></g></g><g><path d="m451.027 0h-390.299c-15.081 0-27.351 12.269-27.351 27.35v304.119c0 4.143 3.357 7.5 7.5 7.5s7.5-3.357 7.5-7.5v-273.188h415v445.974c0 4.143 3.357 7.5 7.5 7.5s7.5-3.357 7.5-7.5v-476.905c0-15.081-12.269-27.35-27.35-27.35zm-402.65 43.281v-15.931c0-6.81 5.54-12.35 12.351-12.35h390.299c6.811 0 12.351 5.54 12.351 12.35v15.932h-415.001z"/><path d="m40.877 355.932c-4.143 0-7.5 3.357-7.5 7.5v140.823c0 4.143 3.357 7.5 7.5 7.5s7.5-3.357 7.5-7.5v-140.823c0-4.143-3.357-7.5-7.5-7.5z"/><path d="m138.15 182.069c-3.91-1.368-8.188.692-9.556 4.603-4.99 14.262-7.521 29.203-7.521 44.41 0 74.13 60.31 134.439 134.44 134.439s134.439-60.31 134.439-134.439-60.308-134.439-134.438-134.439c-44.929 0-86.706 22.314-111.754 59.69-2.306 3.44-1.386 8.1 2.056 10.405 3.438 2.307 8.099 1.386 10.405-2.056 8.886-13.26 20.147-24.377 33.005-32.957-8.921 12.99-14.17 28.685-14.17 45.6v141.954c-23.939-21.857-38.982-53.303-38.982-88.197 0-13.516 2.247-26.791 6.679-39.457 1.368-3.909-.693-8.187-4.603-9.556zm84.219 163.769v-13.187c0-4.143-3.357-7.5-7.5-7.5s-7.5 3.357-7.5 7.5v7.725c-6.05-2.676-11.837-5.839-17.313-9.44v-8.342-15.518c0-3.634 1.954-7.021 5.1-8.841l37.219-21.523c4.219 8.458 12.956 14.284 23.032 14.284 10.255 0 19.124-6.033 23.254-14.734l6.835 3.953c1.183.685 2.474 1.009 3.748 1.009 2.59 0 5.109-1.343 6.499-3.746 2.074-3.586.849-8.174-2.737-10.247l-11.872-6.866v-7.902c14.537-8.732 24.287-24.651 24.287-42.809v-26.989c0-4.143-3.357-7.5-7.5-7.5h-84.813c-4.143 0-7.5 3.357-7.5 7.5v26.989c0 18.069 9.653 33.926 24.073 42.685v8.604l-39.624 22.914v-106.532c0-36.294 29.527-65.821 65.821-65.821s65.821 29.527 65.821 65.821v106.497l-.44-.255c-3.586-2.073-8.174-.848-10.248 2.736-2.074 3.586-.849 8.174 2.736 10.248l2.912 1.685c2.885 1.668 4.749 4.66 5.04 7.948v16.409c0 .306.024.607.06.904v6.92c-5.77 3.861-11.895 7.229-18.313 10.052v-7.819c0-4.143-3.357-7.5-7.5-7.5s-7.5 3.357-7.5 7.5v13.25c-10.465 3.006-21.513 4.62-32.932 4.62-11.496.001-22.617-1.636-33.145-4.682zm33.145-101.277c-19.248 0-34.907-15.659-34.907-34.906v-19.489h69.813v19.489c0 19.246-15.659 34.906-34.906 34.906zm0 15c3.644 0 7.195-.403 10.619-1.148v6.857c0 5.915-4.812 10.727-10.727 10.727s-10.727-4.812-10.727-10.727v-6.907c3.492.775 7.114 1.198 10.835 1.198zm119.44-28.479c0 34.538-14.741 65.692-38.255 87.52v-141.277c0-16.45-4.951-31.757-13.428-44.533 31.197 21.569 51.683 57.576 51.683 98.29z"/><path d="m421.248 307.516h-19.238c-9.658 0-17.516 7.857-17.516 17.517v19.238c0 9.659 7.857 17.517 17.516 17.517h19.238c9.659 0 17.517-7.857 17.517-17.517v-19.238c-.001-9.66-7.858-17.517-17.517-17.517zm2.516 36.755c0 1.388-1.129 2.517-2.517 2.517h-19.238c-1.387 0-2.516-1.129-2.516-2.517v-19.238c0-1.388 1.129-2.517 2.516-2.517h19.238c1.388 0 2.517 1.129 2.517 2.517z"/><path d="m114.211 408.564c4.143 0 7.5-3.357 7.5-7.5s-3.357-7.5-7.5-7.5h-18.48c-4.143 0-7.5 3.357-7.5 7.5s3.357 7.5 7.5 7.5z"/><path d="m417.024 393.564h-18.48c-4.143 0-7.5 3.357-7.5 7.5s3.357 7.5 7.5 7.5h18.48c4.143 0 7.5-3.357 7.5-7.5s-3.357-7.5-7.5-7.5z"/><path d="m143.044 393.564c-4.143 0-7.5 3.357-7.5 7.5s3.357 7.5 7.5 7.5h225.229c4.143 0 7.5-3.357 7.5-7.5s-3.357-7.5-7.5-7.5z"/><path d="m417.024 437.538h-318.982c-4.143 0-7.5 3.357-7.5 7.5s3.357 7.5 7.5 7.5h318.982c4.143 0 7.5-3.357 7.5-7.5s-3.357-7.5-7.5-7.5z"/></g></g></svg>