<svg id="Capa_1" enable-background="new 0 0 512 512" height="512" viewBox="0 0 512 512" width="512" xmlns="http://www.w3.org/2000/svg"><g><path d="m337.379 387.7 28.121 53.22-109.5 15.814-99.5-15.814 28.38-53.22z" fill="#2b597f"/><path d="m504.5 55v298.42c0 22.09-17.91 40-40 40h-417c-22.09 0-40-17.91-40-40v-297.42c0-22.64 18.36-41 41-41h416c22.09 0 40 17.91 40 40z" fill="#50758d"/><path d="m62.5 393.42h-15c-22.09 0-40-17.91-40-40v-297.42c0-22.64 18.36-41 41-41h15c-22.64 0-41 18.36-41 41v297.42c0 22.09 17.91 40 40 40z" fill="#2b597f"/><path d="m454 363.42h-396c-11.046 0-20-8.954-20-20v-278c0-11.046 8.954-20 20-20h396c11.046 0 20 8.954 20 20v278c0 11.046-8.954 20-20 20z" fill="#f5f5f5"/><path d="m474 65.42v278c0 11.05-8.95 20-20 20h-396c-11.05 0-20-8.95-20-20v-278c0-11.05 8.95-20 20-20h396c11.05 0 20 8.95 20 20z" fill="#f5f5f5"/><path d="m399.5 483h-274c-11.598 0-21-9.402-21-21 0-11.598 9.402-21 21-21h274z" fill="#50758d"/><path d="m149.5 483h-24c-11.6 0-21-9.4-21-21 0-5.8 2.35-11.05 6.15-14.85s9.05-6.15 14.85-6.15h24c-5.8 0-11.05 2.35-14.85 6.15s-6.15 9.05-6.15 14.85c0 11.6 9.4 21 21 21z" fill="#2b597f"/><g><path d="m399 220.516h-286c-11.046 0-20-8.954-20-20v-54c0-11.046 8.954-20 20-20h286c11.046 0 20 8.954 20 20v54c0 11.046-8.954 20-20 20z" fill="#2edffc"/><path d="m128 220.52h-15c-11.05 0-20-8.96-20-20v-54c0-11.05 8.95-20 20-20h15c-11.05 0-20 8.95-20 20v54c0 11.04 8.95 20 20 20z" fill="#27bdf3"/><g fill="#2b597f"><path d="m167.167 176.552-5.811-3.417 6.734-3.817c3.604-2.042 4.869-6.619 2.827-10.223-2.043-3.604-6.621-4.869-10.223-2.826l-6.828 3.87v-7.123c0-4.143-3.358-7.5-7.5-7.5s-7.5 3.357-7.5 7.5v6.895l-6.565-3.86c-3.569-2.099-8.167-.907-10.267 2.663-2.099 3.571-.907 8.168 2.664 10.267l6.661 3.916-5.852 3.317c-3.604 2.042-4.869 6.619-2.827 10.223 1.381 2.436 3.919 3.803 6.532 3.803 1.253 0 2.524-.314 3.691-.977l5.962-3.38v8.133c0 4.143 3.358 7.5 7.5 7.5s7.5-3.357 7.5-7.5v-7.886l5.699 3.351c1.194.702 2.502 1.036 3.794 1.036 2.571 0 5.075-1.323 6.472-3.699 2.101-3.571.908-8.168-2.663-10.266z"/><path d="m239.167 176.552-5.811-3.417 6.734-3.817c3.604-2.042 4.869-6.619 2.827-10.223-2.043-3.604-6.622-4.869-10.223-2.826l-6.828 3.87v-7.123c0-4.143-3.358-7.5-7.5-7.5s-7.5 3.357-7.5 7.5v6.895l-6.565-3.86c-3.57-2.099-8.167-.907-10.267 2.663-2.099 3.571-.907 8.168 2.664 10.267l6.661 3.916-5.852 3.317c-3.604 2.042-4.869 6.619-2.827 10.223 1.381 2.436 3.919 3.803 6.532 3.803 1.253 0 2.524-.314 3.691-.977l5.962-3.38v8.133c0 4.143 3.358 7.5 7.5 7.5s7.5-3.357 7.5-7.5v-7.886l5.699 3.351c1.194.702 2.502 1.036 3.794 1.036 2.571 0 5.075-1.323 6.472-3.699 2.101-3.571.908-8.168-2.663-10.266z"/><path d="m311.167 176.552-5.811-3.417 6.734-3.817c3.604-2.042 4.869-6.619 2.827-10.223s-6.621-4.869-10.223-2.826l-6.828 3.87v-7.123c0-4.143-3.358-7.5-7.5-7.5s-7.5 3.357-7.5 7.5v6.895l-6.565-3.86c-3.569-2.099-8.167-.907-10.267 2.663-2.099 3.571-.907 8.168 2.664 10.267l6.661 3.916-5.852 3.317c-3.604 2.042-4.869 6.619-2.827 10.223 1.381 2.436 3.919 3.803 6.532 3.803 1.253 0 2.524-.314 3.691-.977l5.962-3.38v8.133c0 4.143 3.358 7.5 7.5 7.5s7.5-3.357 7.5-7.5v-7.886l5.699 3.351c1.194.702 2.502 1.036 3.794 1.036 2.571 0 5.075-1.323 6.472-3.699 2.101-3.571.908-8.168-2.663-10.266z"/><path d="m380.5 201.017h-39c-4.142 0-7.5-3.357-7.5-7.5s3.358-7.5 7.5-7.5h39c4.142 0 7.5 3.357 7.5 7.5s-3.358 7.5-7.5 7.5z"/></g></g><path d="m466.76 326.31h-8.76v-20.31c0-14.64-5.93-27.88-15.52-37.48-5.942-5.936-13.28-10.464-21.48-13.057v-2.463h-16c-29.271 0-53 23.729-53 53v20.31h-1.5c-16.569 0-30 13.431-30 30v7.11h133.5c11.046 0 20-8.954 20-20v-15.81c-2.26-.84-4.7-1.3-7.24-1.3zm-84.76-20.31c0-12.977 10.808-23.481 23.893-22.983 12.444.474 22.107 11.096 22.107 23.549v19.744h-46z" fill="#e6e6e6"/><path d="m474 306v37.31l-15.77 10-14.23-10v-37.31c0-12.68-10.32-23-23-23s-23 10.32-23 23v37.31l-15.68 10-14.32-10v-37.31c0-29.27 23.73-53 53-53 14.64 0 27.88 5.93 37.48 15.52 9.59 9.6 15.52 22.84 15.52 37.48z" fill="#fad207"/><path d="m382 306v37.31l7.64 5.33-7.32 4.67-14.32-10v-37.31c0-29.27 23.73-53 53-53 2.37 0 4.71.16 7 .46-25.96 3.42-46 25.64-46 52.54z" fill="#faa515"/><path d="m465.59 348.64-7.36 4.67-14.23-10v-37.31c0-10.24-6.73-18.94-16-21.9 2.21-.72 4.56-1.1 7-1.1 12.68 0 23 10.32 23 23v37.31z" fill="#faa515"/><path d="m504.5 332.54v20.88c0 22.09-17.91 40-40 40h-144l.01-30h133.49c11.05 0 20-8.95 20-20v-17.11h9.76c7.65 0 14.78 2.29 20.74 6.23z" fill="#2b597f"/><path d="m320.508 368.734h33.119v114.266h-33.119z" fill="#2b597f"/><path d="m320.508 393.42h33.119v47.58h-33.119z" fill="#225272"/><path clip-rule="evenodd" d="m504.5 364.05v112.21c0 11.45-9.29 20.74-20.74 20.74h-125.52c-11.45 0-20.74-9.29-20.74-20.74v-112.21c0-11.45 9.29-20.74 20.74-20.74h125.52c11.45 0 20.74 9.29 20.74 20.74z" fill="#faf063" fill-rule="evenodd"/><path d="m373.24 497h-15c-11.45 0-20.74-9.29-20.74-20.74v-112.21c0-11.45 9.29-20.74 20.74-20.74h15c-11.45 0-20.74 9.29-20.74 20.74v112.21c0 11.45 9.29 20.74 20.74 20.74z" fill="#fad207"/><path d="m440 410c0-10.493-8.507-19-19-19s-19 8.507-19 19c0 7.829 4.738 14.547 11.5 17.457v21.199c0 4.143 3.358 7.5 7.5 7.5s7.5-3.357 7.5-7.5v-21.199c6.762-2.91 11.5-9.628 11.5-17.457z" fill="#faa515"/></g><g><path d="m464.5 7.5h-315.5c-4.142 0-7.5 3.357-7.5 7.5s3.358 7.5 7.5 7.5h315.5c17.92 0 32.5 14.579 32.5 32.5v284.117c-3.952-2.107-8.458-3.306-13.241-3.306h-2.259v-29.811-147.5c0-4.143-3.358-7.5-7.5-7.5s-7.5 3.357-7.5 7.5v107.691c-11.098-12.668-27.375-20.691-45.5-20.691-33.36 0-60.5 27.141-60.5 60.5v29.811h-2.259c-12.592 0-23.282 8.286-26.914 19.689h-273.327c-6.893 0-12.5-5.607-12.5-12.5v-278c0-6.893 5.607-12.5 12.5-12.5h396c6.893 0 12.5 5.607 12.5 12.5v58.5c0 4.143 3.358 7.5 7.5 7.5s7.5-3.357 7.5-7.5v-58.5c0-15.163-12.336-27.5-27.5-27.5h-396c-15.164 0-27.5 12.337-27.5 27.5v278c0 15.163 12.336 27.5 27.5 27.5h272v15h-282.5c-17.92 0-32.5-14.579-32.5-32.5v-298c0-17.921 14.58-32.5 32.5-32.5h66.5c4.142 0 7.5-3.357 7.5-7.5s-3.358-7.5-7.5-7.5h-66.5c-26.191 0-47.5 21.309-47.5 47.5v298c0 26.191 21.309 47.5 47.5 47.5h121.833l-17.333 32.5h-26.5c-15.715 0-28.5 12.785-28.5 28.5s12.785 28.5 28.5 28.5h208.081c4.835 8.642 14.074 14.5 24.66 14.5h125.519c15.572 0 28.241-12.669 28.241-28.24v-421.26c-.001-26.191-21.31-47.5-47.501-47.5zm-89 298.5c0-25.089 20.411-45.5 45.5-45.5s45.5 20.411 45.5 45.5v29.811h-15v-29.811c0-16.817-13.682-30.5-30.5-30.5s-30.5 13.683-30.5 30.5v29.811h-15zm61 29.811h-31v-29.811c0-8.547 6.953-15.5 15.5-15.5s15.5 6.953 15.5 15.5zm-324.5 125.689c0-7.444 6.056-13.5 13.5-13.5h177c4.142 0 7.5-3.357 7.5-7.5s-3.358-7.5-7.5-7.5h-133.5l17.333-32.5h143.667v74.5h-204.5c-7.444 0-13.5-6.056-13.5-13.5zm385 14.76c0 7.301-5.94 13.24-13.241 13.24h-125.518c-7.301 0-13.241-5.939-13.241-13.24v-112.209c0-7.301 5.94-13.24 13.241-13.24h125.519c7.301 0 13.241 5.939 13.241 13.24v112.209z"/><path d="m201 228.017h198c15.164 0 27.5-12.337 27.5-27.5v-54c0-15.163-12.336-27.5-27.5-27.5h-286c-15.164 0-27.5 12.337-27.5 27.5v54c0 15.163 12.336 27.5 27.5 27.5h53c4.142 0 7.5-3.357 7.5-7.5s-3.358-7.5-7.5-7.5h-53c-6.893 0-12.5-5.607-12.5-12.5v-54c0-6.893 5.607-12.5 12.5-12.5h286c6.893 0 12.5 5.607 12.5 12.5v54c0 6.893-5.607 12.5-12.5 12.5h-198c-4.142 0-7.5 3.357-7.5 7.5s3.358 7.5 7.5 7.5z"/><path d="m170.917 159.096c-2.043-3.604-6.621-4.869-10.223-2.826l-6.828 3.87c0-1.386 0-5.672 0-7.123 0-4.143-3.358-7.5-7.5-7.5s-7.5 3.357-7.5 7.5v6.895l-6.565-3.86c-3.569-2.099-8.167-.907-10.267 2.663-2.099 3.571-.907 8.168 2.664 10.267l6.661 3.916-5.852 3.317c-6.7 3.497-3.689 14.307 3.705 14.025 2.66.275 7.367-3.241 9.654-4.356v8.133c0 4.143 3.358 7.5 7.5 7.5s7.5-3.357 7.5-7.5c0-1.829 0-6.103 0-7.886 2.322 1.186 6.759 4.656 9.493 4.387 2.571 0 5.075-1.323 6.472-3.699 2.099-3.571.907-8.168-2.664-10.267l-5.811-3.417 6.734-3.817c3.604-2.042 4.869-6.619 2.827-10.222z"/><path d="m225.866 153.017c0-4.143-3.358-7.5-7.5-7.5s-7.5 3.357-7.5 7.5v6.895l-6.565-3.86c-3.57-2.099-8.167-.907-10.267 2.663-2.099 3.571-.907 8.168 2.664 10.267l6.661 3.916-5.852 3.317c-6.7 3.497-3.689 14.307 3.705 14.025 2.66.275 7.367-3.241 9.654-4.356v8.133c0 4.143 3.358 7.5 7.5 7.5s7.5-3.357 7.5-7.5c0-1.829 0-6.103 0-7.886 2.322 1.186 6.759 4.656 9.493 4.387 2.571 0 5.075-1.323 6.472-3.699 2.099-3.571.907-8.168-2.664-10.267l-5.811-3.417 6.734-3.817c3.604-2.042 4.869-6.619 2.827-10.223-2.043-3.604-6.622-4.869-10.223-2.826l-6.828 3.87c0-1.386 0-5.671 0-7.122z"/><path d="m297.866 153.017c0-4.143-3.358-7.5-7.5-7.5s-7.5 3.357-7.5 7.5v6.895l-6.565-3.86c-3.569-2.099-8.167-.907-10.267 2.663-2.099 3.571-.907 8.168 2.664 10.267l6.661 3.916-5.852 3.317c-3.604 2.042-4.869 6.619-2.827 10.223 1.381 2.436 3.919 3.803 6.532 3.803 2.66.275 7.367-3.241 9.654-4.356v8.133c0 4.143 3.358 7.5 7.5 7.5s7.5-3.357 7.5-7.5c0-1.829 0-6.103 0-7.886 2.322 1.186 6.759 4.656 9.493 4.387 2.571 0 5.075-1.323 6.472-3.699 2.099-3.571.907-8.168-2.664-10.267l-5.811-3.417 6.734-3.817c3.604-2.042 4.869-6.619 2.827-10.223-2.043-3.604-6.621-4.869-10.223-2.826l-6.828 3.87c0-1.387 0-5.672 0-7.123z"/><path d="m380.5 201.017c4.142 0 7.5-3.357 7.5-7.5s-3.358-7.5-7.5-7.5h-39c-4.142 0-7.5 3.357-7.5 7.5s3.358 7.5 7.5 7.5z"/><path d="m421 383.5c-14.612 0-26.5 11.888-26.5 26.5 0 12.008 8.03 22.169 19 25.413v13.243c0 4.143 3.358 7.5 7.5 7.5s7.5-3.357 7.5-7.5v-13.243c10.97-3.244 19-13.405 19-25.413 0-14.612-11.888-26.5-26.5-26.5zm0 38c-6.341 0-11.5-5.159-11.5-11.5s5.159-11.5 11.5-11.5 11.5 5.159 11.5 11.5-5.159 11.5-11.5 11.5z"/></g></svg>