<svg height="512" viewBox="0 0 512 512" width="512" xmlns="http://www.w3.org/2000/svg"><g id="Filled_outline" data-name="Filled outline"><path d="m440 409.9v86.1h-368v-86.1a56 56 0 0 1 40.2-53.72l87.58-25.76 8.22-2.42v-72h96v72l8.22 2.42 87.58 25.76a56 56 0 0 1 40.2 53.72z" fill="#fdc8a2"/><path d="m312.22 330.42a36 36 0 0 1 -28.17 13.58h-56.1a36 36 0 0 1 -28.17-13.58l8.22-2.42v-72h96v72z" fill="#fdbf92"/><path d="m399.8 356.177-95.8-28.177v-16l-32 56-16 64-16-64-32-56v16l-95.8 28.177a56 56 0 0 0 -40.2 53.723v86.1h368v-86.1a56 56 0 0 0 -40.2-53.723z" fill="#868444"/><path d="m208 312v80l32-24z" fill="#939250"/><path d="m304 312v80l-32-24z" fill="#939250"/><path d="m208 328v168h-136v-86.1a56.013 56.013 0 0 1 40.2-53.72z" fill="#7a432a"/><path d="m440 409.9v86.1h-136v-168l95.8 28.18a55.979 55.979 0 0 1 40.2 53.72z" fill="#7a432a"/><path d="m208 312-56 64 32 16-16 32 40 64z" fill="#895036"/><path d="m304 312 56 64-32 16 16 32-40 64z" fill="#895036"/><path d="m164 192h12v-56h-12a28 28 0 0 0 -28 28 28 28 0 0 0 28 28z" fill="#fdb683"/><path d="m348 136h-12v56h12a28 28 0 0 0 28-28 28 28 0 0 0 -28-28z" fill="#fdb683"/><path d="m276.105 288h-40.205a60.9 60.9 0 0 1 -57.776-41.642 197.2 197.2 0 0 1 -10.124-62.358v-52c0-40.5 26.754-74.613 64-84.857a92.669 92.669 0 0 1 24-3.143 88 88 0 0 1 88 88v52a197.2 197.2 0 0 1 -10.119 62.358 60.9 60.9 0 0 1 -57.776 41.642z" fill="#fdc8a2"/><g fill="#7a432a"><path d="m344 88v48s-46.11-12.22-64-48c-24-48-48-40.859-48-40.859l2.53-6.731a24.005 24.005 0 0 1 22.77-16.41h22.7a64 64 0 0 1 64 64z"/><path d="m232 47.141-2.98 12.8a116.7 116.7 0 0 1 -61.02 76.059v-48.96a50.234 50.234 0 0 1 27.76-44.92 31.37 31.37 0 0 1 14.04-3.32c8.14 0 16.17 2.311 22.2 8.341z"/><path d="m168 136 27.777 62.5a16 16 0 0 0 14.623 9.5h77.039a16 16 0 0 0 13.313-7.125l43.248-64.875v101.645a64 64 0 0 1 -9.728 33.92l-19.7 31.515a36 36 0 0 1 -30.525 16.92h-56.094a36 36 0 0 1 -30.528-16.92l-19.7-31.515a64 64 0 0 1 -9.725-33.92z"/></g><path d="m214 176a14 14 0 1 1 14-14 14.015 14.015 0 0 1 -14 14z" fill="#91563a"/><path d="m298 176a14 14 0 1 1 14-14 14.015 14.015 0 0 1 -14 14z" fill="#91563a"/><path d="m432.605 368.265a63.856 63.856 0 0 0 -30.547-19.76l-74.712-21.975-11.03-12.6a44.481 44.481 0 0 0 5.043-6.605l19.7-31.514a71.926 71.926 0 0 0 10.941-38.165v-37.874a35.994 35.994 0 0 0 0-71.544v-40.228a72.081 72.081 0 0 0 -72-72h-22.7a31.95 31.95 0 0 0 -29.336 19.238 39.336 39.336 0 0 0 -35.778-.274 58.149 58.149 0 0 0 -13.635 9.461l10.9 11.709a42.27 42.27 0 0 1 9.889-6.86 23.362 23.362 0 0 1 23.688 1.626s-4.028 40.767-47.028 71.239v-13.665c16.007-11.265 29.542-37.67 31.155-40.9l-14.309-7.159a148.934 148.934 0 0 1 -16.828 26.022 42.393 42.393 0 0 1 4.686-18.77l-14.217-7.342a58.465 58.465 0 0 0 -6.487 26.713v41.19a35.994 35.994 0 0 0 0 71.544v37.874a71.926 71.926 0 0 0 10.944 38.16l19.7 31.514a44.543 44.543 0 0 0 5.042 6.605l-11.029 12.6-74.712 21.975a63.984 63.984 0 0 0 -45.945 61.4v86.1h16v-86.1a47.786 47.786 0 0 1 4.418-20.121l30.582 24.468 10-12.494-31.5-25.2a48.193 48.193 0 0 1 20.961-12.7l50.548-14.867-19.029 21.746a8.1 8.1 0 0 0 2.442 12.423l24.845 12.423-12.422 24.844a8 8 0 0 0 .371 7.818l38.784 62.06v5.7h32v-16h-16v-48h16v-16h-16v-20l19.161-14.371 12.839 51.354v63.017h16v-63.017l12.838-51.354 19.162 14.371v100h16v-5.7l38.784-62.055a8 8 0 0 0 .371-7.818l-12.422-24.844 24.845-12.423a8.069 8.069 0 0 0 2.443-12.423l-19.027-21.745 50.549 14.867a47.9 47.9 0 0 1 17.687 9.6l-28.887 28.888 11.314 11.314 27.849-27.848a48.035 48.035 0 0 1 6.494 24.087v14.1h16v-14.1a64.085 64.085 0 0 0 -15.395-41.635zm-80.605-223.865a20 20 0 0 1 0 39.2zm-192 39.2a20 20 0 0 1 0-39.2zm97.3-151.6h22.7a56.06 56.06 0 0 1 55.94 53.662c-25.274-24.73-32.524-40.671-32.605-40.854l-14.689 6.343c.413.959 10.3 23.373 47.354 56.447v17.132c-13.671-5.534-37.683-17.984-48.845-40.308-10.8-21.61-23.221-35.651-36.906-41.733a37.949 37.949 0 0 0 -7-2.349 15.978 15.978 0 0 1 14.051-8.34zm-20.524 29.877 1.539-6.155c6.515 1.032 20.076 6.949 34.53 35.856 14.019 28.037 43.106 42.588 58.721 48.651l-37.472 56.209a7.987 7.987 0 0 1 -6.656 3.562h-31.438v-40h-16v40h-29.6a8 8 0 0 1 -7.31-4.751l-24.771-55.734a124.513 124.513 0 0 0 58.457-77.638zm-49.2 322.968-22.739-11.369 35.163-40.187v126.816l-22.838-36.541 13.993-27.986a8 8 0 0 0 -3.577-10.733zm16.631-86.005-19.7-31.515a55.93 55.93 0 0 1 -8.507-29.679v-63.946l12.467 28.049a24.017 24.017 0 0 0 21.933 14.251h77.04a23.951 23.951 0 0 0 19.968-10.688l28.592-42.89v75.224a55.93 55.93 0 0 1 -8.513 29.679l-19.7 31.515a27.842 27.842 0 0 1 -23.74 13.16h-56.094a27.842 27.842 0 0 1 -23.744-13.16zm11.793 77.16v-33.877l13.551 23.714zm48.226-9.887-8.226 32.903-8.226-32.9c-.173-.714-21.445-38.164-21.445-38.164.541.019 58.8.019 59.342 0 0-.003-21.271 37.448-21.445 38.161zm18.223-.276 13.551-23.714v33.877zm64.712 7.639-22.739 11.369a8 8 0 0 0 -3.577 10.733l13.993 27.986-22.838 36.541v-126.816z"/><path d="m432 440h16v56h-16z"/><path d="m128 424h16v72h-16z"/><path d="m368 424h16v72h-16z"/><circle cx="214" cy="162" r="14"/><circle cx="298" cy="162" r="14"/><path d="m281.573 244.129-3.143-15.689c-.231.047-23.34 4.592-45.987 3.339l-.886 15.975c21.443 2.579 49.124-3.446 50.016-3.625z"/><path d="m294.609 247.145 14.311 7.155c6.678-13.356 1.52-27.07-5.532-35.45l-12.242 10.3c1.305 1.55 7.606 9.708 3.463 17.995z"/><path d="m208 120h88v16h-88z"/></g></svg>